<?xml version="1.0" encoding="utf-8"?>
<!-- Generator: Adobe Illustrator 24.2.0, SVG Export Plug-In . SVG Version: 6.00 Build 0)  -->
<svg version="1.1" id="Capa_1" xmlns="http://www.w3.org/2000/svg" xmlns:xlink="http://www.w3.org/1999/xlink" x="0px" y="0px"
	 viewBox="0 0 858 290" style="enable-background:new 0 0 858 290;" xml:space="preserve">
<style type="text/css">
	.st0{fill:#4BC3C3;}
	.st1{fill:#00D65C;}
	.st2{fill:none;stroke:#00D65C;stroke-width:5;stroke-miterlimit:10;}
	.st3{fill:none;stroke:#FFFFFF;stroke-width:15;stroke-linecap:round;stroke-linejoin:round;stroke-miterlimit:10;}
	.st4{fill:none;stroke:#00D65C;stroke-width:5;stroke-linecap:round;stroke-linejoin:round;stroke-miterlimit:10;}
</style>
<g>
	<polygon class="st0" points="349.16,46.51 327.58,46.51 327.58,248.74 411.35,248.74 411.35,229.7 349.16,229.7 	"/>
	<path class="st0" d="M473.69,46.51l-59.51,202.23h23.13l16.22-58.39h62.9l15.94,58.39h23.41L497.39,46.51H473.69z M457.48,172.16
		l23.41-84.05c0.75-2.82,1.79-7.66,3.1-14.53l0.71-3.38h0.56c1.78,10.34,2.96,16.5,3.53,18.47l22.71,83.49H457.48z"/>
	<path class="st0" d="M657.19,157.22c-6.68-8.84-15.65-13.96-26.94-15.37v-0.56c19.65-8.08,29.47-23.88,29.47-47.39
		c0-14.67-4.11-26.23-12.34-34.69c-8.23-8.46-19.81-12.69-34.76-12.69h-48.79v202.23h50.77c16.08,0,28.86-5.41,38.36-16.22
		c9.5-10.81,14.24-25.05,14.24-42.73C667.2,176.91,663.86,166.05,657.19,157.22z M584.84,65.69h21.72c9.78,0,17.37,2.96,22.78,8.88
		c5.41,5.92,8.11,13.92,8.11,23.97c0,10.91-2.99,19.65-8.96,26.23c-5.97,6.58-13.84,9.87-23.62,9.87h-20.03V65.69z M635.96,218.84
		c-5.78,7.24-14.13,10.86-25.03,10.86h-26.09v-76.01h22.28c11.56,0,20.71,3.2,27.43,9.59c6.72,6.4,10.08,15.42,10.08,27.08
		C644.64,202.11,641.74,211.61,635.96,218.84z"/>
</g>
<g>
	<g>
		<path class="st1" d="M785.03,202.01v47.1h-33.99v-47.1H684.9v-24.26l65.58-130.87h34.55V175.5h18.47v26.51H785.03z M750.47,97.23
			c-2.07,6.39-3.81,11.09-5.22,14.1l-32.72,64.17h38.5v-69.24c0-3.38,0.09-6.39,0.28-9.03H750.47z"/>
	</g>
</g>
<path class="st2" d="M233,36.5c-36.45,0-61.5,38.5-66,38.5s-29.55-38.5-66-38.5s-66,29.55-66,66c0,111,125.5,151,132,151
	s132-42,132-151C299,66.05,269.45,36.5,233,36.5z"/>
<polyline class="st3" points="28,167 112,167 137.87,201.48 163.74,102.48 189.61,201.48 215.49,141.19 227,167 830,167 "/>
<polyline class="st4" points="28,167 112,167 137.87,201.48 163.74,102.48 189.61,201.48 215.49,141.19 227,167 830,167 "/>
</svg>
